<svg xmlns="http://www.w3.org/2000/svg" width="38" height="38">
  <g fill="none" fill-rule="nonzero">
    <path fill="#283139" d="M18.949 0C8.484 0 0 8.484 0 18.949c0 10.465 8.484 18.949 18.949 18.949 10.465 0 18.949-8.484 18.949-18.95C37.898 8.485 29.414 0 18.948 0z"/>
    <path fill="#FFF" d="M30.347 24.648c0 3.171-2.58 5.75-5.75 5.75H13.3c-3.17 0-5.75-2.579-5.75-5.75V13.352c0-3.17 2.58-5.75 5.75-5.75h11.296c3.17 0 5.75 2.58 5.75 5.75v11.296zm-5.75-14.565H13.3a3.273 3.273 0 0 0-3.27 3.27v11.295a3.274 3.274 0 0 0 3.27 3.27h11.296a3.274 3.274 0 0 0 3.27-3.27V13.352a3.274 3.274 0 0 0-3.27-3.27zM18.949 24.87A5.878 5.878 0 0 1 13.078 19a5.878 5.878 0 0 1 5.87-5.871A5.878 5.878 0 0 1 24.82 19a5.879 5.879 0 0 1-5.871 5.871zm0-9.261a3.395 3.395 0 0 0-3.39 3.39c0 1.87 1.521 3.39 3.39 3.39 1.87 0 3.39-1.52 3.39-3.39 0-1.869-1.52-3.39-3.39-3.39zm6.06-1.267a1.39 1.39 0 0 1-1.39-1.39 1.39 1.39 0 0 1 2.779 0 1.39 1.39 0 0 1-1.389 1.39z"/>
  </g>
</svg>