<svg xmlns="http://www.w3.org/2000/svg" width="124.318" height="124.096" version="1" viewBox="0 0 124.318 124.096"><path fill="#6D6F71" d="M60.864 107.79v12.154h-3.788V107.79h-6.03v12.154H47.51V107.79h-6.097v15.915H67.02L67 107.79m16.988 2.095c-.568-.746-1.335-1.36-2.303-1.838-.977-.474-2.236-.712-3.796-.712-1.6 0-2.94.25-4.02.75-1.08.495-1.95 1.147-2.59 1.946-.65.8-1.12 1.7-1.4 2.71-.29 1-.43 2.02-.43 3.04 0 1.06.12 2.09.36 3.08.24.99.67 1.88 1.29 2.66.63.79 1.49 1.4 2.58 1.87 1.08.47 2.49.7 4.22.7 1.1 0 2.29-.11 3.57-.35 1.27-.23 2.47-.66 3.59-1.26l-1.16-3.56c-.78.28-1.59.5-2.42.66-.83.17-1.64.25-2.42.25-1.26 0-2.15-.243-2.71-.73-.55-.49-.83-1.313-.83-2.482h9.89v-1.325c0-.927-.11-1.867-.31-2.817-.2-.955-.59-1.804-1.15-2.544zm-8.33 4.26c.017-.715.2-1.347.546-1.914.347-.56.918-.83 1.717-.83.42 0 .75.07 1.01.22.26.13.47.33.62.58.15.25.25.54.32.88.07.34.1.7.1 1.09h-4.31zm48.642-6.385h-9.964c-.76 0-1.48.096-2.17.305-.694.206-1.3.526-1.82.955-.517.437-.932.974-1.25 1.63-.307.642-.468 1.4-.468 2.26 0 1.083.268 1.992.796 2.724.53.736 1.228 1.22 2.093 1.46-.07.133-1.32 1.974-1.492 2.238-.176.26-2.72 4.208-2.72 4.208.6.2 1.212.33 1.83.408.618.074 1.13.108 1.543.108 1.01 0 1.787-.205 2.313-.627s1.02-1.01 1.45-1.77l2.14-3.76h1.62v2.52c.03 1.19.33 2.09.9 2.7.58.6 1.61.9 3.1.9.63 0 1.32-.07 2.07-.21l.08-.02-.02-16.04zm-6.112 6.835h-1.647c-.54 0-.99-.12-1.37-.356-.38-.24-.57-.63-.57-1.17 0-.52.15-.93.46-1.25.31-.31.77-.47 1.4-.47h1.75v3.23zm-91.948 1.588v-.032h-.134v-8.36h-6.08l-.01 15.92h5.9l5.747-8.13h.15v4.74c0 .54.06 1.04.175 1.5.12.45.333.84.63 1.18.31.34.716.61 1.235.8.523.19 1.18.29 1.98.29.624 0 1.307-.06 2.04-.2.028 0 .034-.01.063-.02V107.8h-5.86c-.44.63-5.835 8.393-5.835 8.393zm72.883-2.363h-4.92v-6.06h-6.12l-.038 15.944h6.158v-6.573h4.92v3.37c0 1.19.283 2.09.864 2.69.572.6 1.61.91 3.12.91.635 0 1.32-.07 2.062-.21.02 0 .05-.01.08-.01v-16.11h-6.13v6.06zm-81.126-6.03c-.526 0-6.18-.02-6.18-.02l-4.892 7.85 4.324 7.05c.35.52.76.886 1.25 1.094.48.217 1.18.314 2.09.293.21 0 .48-.014.77-.043.3-.033.62-.08.96-.132.33-.053.66-.118.98-.177.32-.07.61-.15.87-.254l-5.38-8.26 5.19-7.39zm-17.5-.03l.008 15.945H6.66l-.013-15.945m65.878-3.362c.62 0 1.3-.07 2.034-.208.03-.005.03-.018.06-.02V88.126h-5.86c-.44.622-5.84 8.395-5.84 8.395v-.03h-.12v-8.36h-6.09l-.01 15.91h5.9l5.75-8.13h.14v4.74c0 .54.06 1.04.18 1.49.12.46.33.85.63 1.18.3.34.71.61 1.23.8.51.2 1.17.3 1.98.3zm-57.708-1.605c1.095-.828 1.635-1.994 1.635-3.483 0-.325-.035-.675-.11-1.037-.078-.366-.2-.725-.374-1.07-.174-.345-.413-.662-.73-.943-.312-.277-.705-.505-1.18-.68.71-.365 1.21-.853 1.488-1.457.28-.603.423-1.166.423-1.685 0-1.36-.46-2.422-1.38-3.192-.92-.77-2.34-1.153-4.26-1.153H.49v15.947h9.958c1.816 0 3.273-.416 4.36-1.247zM6.337 91.66h2.435c.5 0 .852.12 1.07.355.213.243.326.55.326.942 0 .405-.124.735-.375.976-.242.233-.552.352-.922.352H6.34V91.66zm2.73 8.72h-2.73v-2.95h2.73c.52 0 .903.146 1.15.432.25.296.372.65.372 1.053 0 .438-.14.788-.42 1.058-.27.27-.64.404-1.11.404zm13.593 3.323c1.09.466 2.504.695 4.227.695 1.11 0 2.29-.124 3.567-.36 1.27-.232 2.474-.656 3.6-1.255l-1.17-3.563c-.777.273-1.578.496-2.413.66-.83.16-1.63.24-2.41.24-1.25 0-2.16-.24-2.71-.73-.55-.486-.82-1.31-.82-2.48h9.89v-1.328c0-.934-.1-1.867-.3-2.817-.21-.958-.59-1.798-1.15-2.542-.56-.75-1.33-1.36-2.3-1.838-.97-.473-2.23-.71-3.79-.71-1.6 0-2.94.248-4.01.742-1.08.502-1.94 1.15-2.59 1.95-.65.8-1.12 1.705-1.4 2.708-.28 1-.42 2.012-.42 3.028 0 1.053.12 2.087.36 3.082.24.99.67 1.877 1.3 2.652.63.782 1.48 1.404 2.57 1.866zm2.512-11.137c.35-.56.913-.844 1.714-.844.412 0 .75.072 1.007.21.26.144.466.34.613.585.152.25.265.542.326.876.068.333.098.703.098 1.086h-4.308c.022-.72.204-1.35.55-1.92zm17.798 7.794c.487-1.044.794-2.206.926-3.483.13-1.277.195-2.642.195-4.113v-.97h2.95l.03 12.246h6.13V88.093H38.65v5.542c0 1.063-.047 1.956-.12 2.673-.073.725-.244 1.355-.5 1.887-.263.526-.63 1.007-1.12 1.436-.49.44-1.128.9-1.93 1.37l2.04 4.02c1.6-.47 2.872-1.1 3.81-1.89.94-.79 1.655-1.71 2.14-2.76zm66.463 4.02c.79 0 1.61-.08 2.463-.23V93.395c0-1.062-.156-1.958-.47-2.688-.31-.74-.76-1.33-1.342-1.77-.587-.44-1.294-.76-2.122-.954-.84-.195-1.764-.29-2.806-.29-.63 0-1.266.022-1.915.08-.64.05-1.28.133-1.92.258-.63.12-1.25.26-1.85.42-.59.16-1.12.34-1.59.55l.9 3.63c.67-.21 1.46-.38 2.37-.51.91-.13 1.73-.19 2.5-.19.98 0 1.65.19 2 .57.36.38.54.93.54 1.64v.52l-4.31.39c-1.15.13-2.08.35-2.82.65-.73.31-1.32.67-1.75 1.07-.42.42-.73.88-.9 1.39-.17.51-.26 1.04-.26 1.606 0 .454.07.957.21 1.51.15.55.41 1.06.8 1.524.39.46.91.853 1.57 1.16.66.314 1.51.47 2.54.47.22 0 .528-.02.91-.046.39-.033.83-.12 1.3-.26.48-.144.98-.364 1.51-.66.53-.31 1.04-.72 1.54-1.23l.027.03c.043.88.35 1.47.91 1.745.56.28 1.23.42 2.01.42zm-3.338-4.538c-.31.282-.634.502-1.007.67-.367.158-.72.24-1.068.24-.605 0-1.03-.156-1.286-.47-.24-.308-.365-.755-.365-1.313 0-.37.11-.71.35-1.01.24-.3.63-.49 1.2-.58l2.17-.3v2.75zm-16.055 4.3c.49.21 1.188.313 2.095.29.223 0 .472-.015.775-.044.305-.035.627-.085.955-.135.34-.05.665-.108.995-.178.317-.063.617-.15.873-.26l-5.38-8.264 5.183-7.39-6.176-.01-4.895 7.84 4.337 7.06c.338.52.76.89 1.24 1.11zm-5.85-16.015h-6.15v15.946h6.168"/><g fill-rule="evenodd" clip-rule="evenodd"><path fill="#FFC222" d="M16.43 0C1.595 0 0 3.64 0 13.36v52.592c0 9.72 1.796 13.35 16.43 13.35 14.08 0 15.736-3.955 15.736-13.35v-52.59C32.166 3.96 30.51 0 16.43 0z"/><path fill="#4AAA42" d="M36.813 40.692c0-1.23-.035-1.698-.035-2.616 0-4.756.654-7.64 7-7.64 6.343 0 7.338-2.196 7.338-6.556V8.323c0-4.38 3.147-7.337 6.69-7.836C63.14-.26 80.193 2.83 82.264 20.665c.608 12.975-9.987 18.622-9.987 18.622s11.52 5.84 11.043 19.29c-.51 14.536-16.104 22.218-26.297 20.184-4.523-.9-5.907-4.34-5.907-7.52V54.11c0-4.418-.79-5.997-7.22-5.997-6.432 0-7.083-2.97-7.083-7.42z"/></g></svg>