<svg width="234" height="72" viewBox="0 0 234 72" fill="none" xmlns="http://www.w3.org/2000/svg">
<path d="M224.306 70.3733H9.06938C4.70749 70.3733 1.17285 66.6962 1.17285 62.1585V9.11442C1.17285 4.57673 4.70749 0.899628 9.06938 0.899628H224.306C228.668 0.899628 232.203 4.57673 232.203 9.11442V62.1585C232.203 66.6962 228.668 70.3733 224.306 70.3733Z" fill="black"/>
<path d="M9.06482 1.79943C5.18759 1.79943 2.03315 5.081 2.03315 9.11451V62.1586C2.03315 66.1921 5.18759 69.4737 9.06482 69.4737H224.306C228.183 69.4737 231.337 66.1921 231.337 62.1586V9.11451C231.337 5.081 228.183 1.79943 224.306 1.79943H9.06482ZM224.306 71.2731H9.06482C4.23499 71.2731 0.307617 67.1831 0.307617 62.1586V9.11451C0.307617 4.09001 4.23499 0 9.06482 0H224.306C229.136 0 233.063 4.09001 233.063 9.11451V62.1586C233.063 67.1831 229.136 71.2731 224.306 71.2731Z" fill="#A7A9AB"/>
<path d="M81.0196 18.6548L80.1338 15.7688C79.9166 15.0559 79.7327 14.2605 79.5656 13.5825H79.5322C79.3693 14.2605 79.198 15.0733 79.0016 15.7688L78.1325 18.6548H81.0196ZM77.7983 20.2673L76.829 23.588H74.7065L78.3164 11.8787H80.936L84.5918 23.588H82.39L81.3705 20.2673" fill="white"/>
<path d="M87.6622 15.1299L88.9824 19.4155C89.2164 20.163 89.3794 20.8411 89.5298 21.5365H89.5799C89.7303 20.8411 89.9142 20.1804 90.1314 19.4155L91.435 15.1299H93.5867L90.4824 23.588H88.4644L85.4395 15.1299" fill="white"/>
<path d="M99.7835 19.4502C98.3295 19.4328 96.9424 19.7458 96.9424 21.0323C96.9424 21.8668 97.4605 22.2493 98.1123 22.2493C98.9437 22.2493 99.5328 21.693 99.7292 21.0845C99.7835 20.928 99.7835 20.7715 99.7835 20.6151V19.4502ZM101.785 21.5539C101.785 22.3189 101.818 23.0665 101.918 23.5837H100.063L99.9172 22.6492H99.8629C99.3824 23.3055 98.5301 23.7749 97.4605 23.7749C95.8227 23.7749 94.9077 22.5449 94.9077 21.2583C94.9077 19.1373 96.7252 18.0463 99.7292 18.0637V17.9246C99.7292 17.3683 99.5161 16.4468 98.0789 16.4468C97.2767 16.4468 96.4411 16.7076 95.8896 17.0727L95.4885 15.6818C96.0901 15.2994 97.143 14.9386 98.4298 14.9386C101.033 14.9386 101.785 16.6554 101.785 18.5157" fill="white"/>
<path d="M104.688 15.1298H106.74V23.588H104.688V15.1298ZM105.704 13.9128C105.023 13.9128 104.571 13.3912 104.571 12.7653C104.571 12.1047 105.035 11.6005 105.724 11.6005C106.422 11.6005 106.857 12.1047 106.873 12.7653C106.873 13.3912 106.422 13.9128 105.724 13.9128" fill="white"/>
<path d="M109.693 23.588H111.749V11.2354H109.693V23.588Z" fill="white"/>
<path d="M119.027 19.4502C117.573 19.4328 116.186 19.7458 116.186 21.0323C116.186 21.8668 116.704 22.2493 117.356 22.2493C118.192 22.2493 118.776 21.693 118.977 21.0845C119.027 20.928 119.027 20.7715 119.027 20.6151V19.4502ZM121.028 21.5539C121.028 22.3189 121.062 23.0665 121.162 23.5837H119.311L119.161 22.6492H119.111C118.626 23.3055 117.774 23.7749 116.704 23.7749C115.071 23.7749 114.151 22.5449 114.151 21.2583C114.151 19.1373 115.973 18.0463 118.977 18.0637V17.9246C118.977 17.3683 118.76 16.4468 117.323 16.4468C116.52 16.4468 115.685 16.7076 115.137 17.0727L114.736 15.6818C115.338 15.2994 116.387 14.9386 117.673 14.9386C120.276 14.9386 121.028 16.6554 121.028 18.5157" fill="white"/>
<path d="M125.987 20.0934C125.987 20.2673 126.004 20.4412 126.037 20.5976C126.255 21.4669 126.973 22.0928 127.855 22.0928C129.142 22.0928 129.927 21.0323 129.927 19.3154C129.927 17.8203 129.242 16.6032 127.872 16.6032C127.036 16.6032 126.271 17.2291 126.054 18.168C126.021 18.3244 125.987 18.5157 125.987 18.7243V20.0934ZM123.932 11.2354H125.987V16.2903H126.021C126.522 15.4732 127.404 14.9386 128.624 14.9386C130.612 14.9386 132.029 16.6554 132.012 19.2285C132.012 22.2667 130.161 23.7792 128.323 23.7792C127.27 23.7792 126.338 23.362 125.753 22.3188H125.72L125.62 23.588H123.865C123.898 23.0143 123.932 22.0754 123.932 21.2235" fill="white"/>
<path d="M134.432 23.588H136.483V11.2354H134.432V23.588Z" fill="white"/>
<path d="M144.48 18.4636C144.497 17.6812 144.163 16.3947 142.797 16.3947C141.526 16.3947 140.992 17.5943 140.908 18.4636H144.48ZM140.908 19.9544C140.958 21.4844 142.111 22.145 143.415 22.145C144.363 22.145 145.032 21.9885 145.667 21.7625L145.968 23.2186C145.266 23.5359 144.296 23.7575 143.131 23.7575C140.49 23.7575 138.936 22.0755 138.936 19.4893C138.936 17.1422 140.306 14.9386 142.914 14.9386C145.55 14.9386 146.419 17.1944 146.419 19.0547C146.419 19.4546 146.386 19.7675 146.352 19.9544" fill="white"/>
<path d="M156.617 22.2319C157.783 22.2319 158.602 21.0497 158.602 19.3329C158.602 18.0115 158.033 16.4816 156.634 16.4816C155.18 16.4816 154.595 17.9594 154.595 19.3676C154.595 20.9976 155.38 22.2319 156.596 22.2319H156.617ZM156.55 23.7793C154.261 23.7793 152.477 22.145 152.477 19.4198C152.477 16.6381 154.227 14.9386 156.684 14.9386C159.103 14.9386 160.724 16.7076 160.724 19.2807C160.724 22.3884 158.618 23.7793 156.567 23.7793" fill="white"/>
<path d="M163.139 17.6464C163.139 16.6728 163.11 15.8557 163.076 15.1255H164.86L164.96 16.3947H165.011C165.378 15.734 166.264 14.9386 167.618 14.9386C169.034 14.9386 170.505 15.8905 170.505 18.5679V23.5837H168.449V18.8113C168.449 17.5943 168.015 16.6728 166.899 16.6728C166.08 16.6728 165.512 17.2813 165.295 17.9246C165.228 18.0985 165.194 18.3593 165.194 18.6027V23.5837H163.139" fill="white"/>
<path d="M179.968 12.9567V15.1256H181.919V16.7251H179.968V20.4413C179.968 21.4844 180.235 22.006 181.016 22.006C181.384 22.006 181.585 21.9886 181.819 21.9191L181.852 23.5316C181.551 23.6577 181 23.7576 180.365 23.7576C179.6 23.7576 178.982 23.4968 178.597 23.0665C178.146 22.5797 177.946 21.7974 177.946 20.6847V16.7251H176.792V15.1256H177.946V13.5478" fill="white"/>
<path d="M184.205 11.2354H186.261V16.2729H186.294C186.545 15.873 186.896 15.5427 187.314 15.3167C187.731 15.0776 188.212 14.9386 188.73 14.9386C190.117 14.9386 191.567 15.8904 191.567 18.6026V23.588H189.515V18.8286C189.515 17.6116 189.081 16.6728 187.944 16.6728C187.146 16.6728 186.578 17.2291 186.344 17.8724C186.277 18.0637 186.261 18.2897 186.261 18.5157V23.588H184.205" fill="white"/>
<path d="M199.513 18.4636C199.53 17.6812 199.196 16.3947 197.825 16.3947C196.555 16.3947 196.024 17.5943 195.941 18.4636H199.513ZM195.941 19.9544C195.991 21.4844 197.14 22.145 198.443 22.145C199.396 22.145 200.065 21.9885 200.695 21.7625L201 23.2186C200.299 23.5359 199.329 23.7575 198.159 23.7575C195.523 23.7575 193.969 22.0755 193.969 19.4893C193.969 17.1422 195.339 14.9386 197.942 14.9386C200.578 14.9386 201.447 17.1944 201.447 19.0547C201.447 19.4546 201.414 19.7675 201.381 19.9544" fill="white"/>
<path d="M52.254 34.941C52.1997 29.1472 56.8123 26.3264 57.0254 26.196C54.4141 22.232 50.3656 21.6931 48.9408 21.6496C45.5441 21.2801 42.2476 23.7707 40.5179 23.7707C38.7506 23.7707 36.0808 21.6887 33.2104 21.7496C29.5087 21.8104 26.0493 24.0401 24.1524 27.4956C20.2418 34.5499 23.158 44.9118 26.9099 50.6143C28.7901 53.4048 30.9794 56.5255 33.8497 56.4125C36.6573 56.2908 37.706 54.5522 41.0944 54.5522C44.4536 54.5522 45.4396 56.4125 48.3684 56.343C51.3808 56.2908 53.2777 53.5395 55.0868 50.7187C57.2593 47.5197 58.1284 44.3685 58.1618 44.2077C58.0908 44.1816 52.3125 41.8867 52.254 34.941Z" fill="white"/>
<path d="M46.7216 17.9028C48.2299 15.9382 49.2703 13.2608 48.9778 10.5486C46.7927 10.653 44.0602 12.1221 42.4851 14.0432C41.0938 15.7383 39.8446 18.5157 40.1704 21.1236C42.6271 21.3148 45.1465 19.837 46.7216 17.9028Z" fill="white"/>
<path d="M86.1378 46.0027L84.1991 39.7742C83.9944 39.1396 83.61 37.6401 83.0418 35.2843H82.975C82.7494 36.2971 82.3817 37.7966 81.8845 39.7742L79.9793 46.0027H86.1378ZM92.8394 55.9517H88.9245L86.7812 48.9452H79.3359L77.2928 55.9517H73.4824L80.8692 32.0984H85.4233" fill="white"/>
<path d="M108.08 47.2806C108.08 45.6028 107.717 44.225 106.99 43.1384C106.196 42.0083 105.131 41.4389 103.794 41.4389C102.887 41.4389 102.06 41.7562 101.329 42.3778C100.593 43.008 100.109 43.8251 99.8789 44.8422C99.7661 45.3116 99.7118 45.6985 99.7118 46.0027V48.8714C99.7118 50.1231 100.079 51.1793 100.815 52.0399C101.554 52.9049 102.511 53.3308 103.689 53.3308C105.076 53.3308 106.154 52.7788 106.919 51.6661C107.696 50.5578 108.08 49.0974 108.08 47.2806ZM111.824 47.1371C111.824 50.0623 111.064 52.379 109.543 54.0741C108.181 55.5866 106.489 56.3386 104.475 56.3386C102.294 56.3386 100.731 55.5214 99.7786 53.8959H99.7118V62.9582H96.0351V44.4119C96.0351 42.5734 95.9933 40.687 95.9014 38.7485H99.131L99.3357 41.4781H99.4068C100.631 39.4222 102.49 38.3964 104.984 38.3964C106.931 38.3964 108.565 39.2005 109.864 40.8044C111.168 42.4125 111.824 44.5206 111.824 47.1371Z" fill="white"/>
<path d="M127.095 47.2806C127.095 45.6028 126.732 44.225 126.005 43.1384C125.211 42.0083 124.146 41.4389 122.809 41.4389C121.902 41.4389 121.079 41.7562 120.344 42.3778C119.604 43.008 119.128 43.8251 118.902 44.8422C118.785 45.3116 118.731 45.6985 118.731 46.0027V48.8714C118.731 50.1231 119.094 51.1793 119.83 52.0399C120.569 52.9049 121.526 53.3308 122.708 53.3308C124.091 53.3308 125.169 52.7788 125.938 51.6661C126.707 50.5578 127.095 49.0974 127.095 47.2806ZM130.835 47.1371C130.835 50.0623 130.078 52.379 128.558 54.0741C127.196 55.5866 125.508 56.3386 123.49 56.3386C121.313 56.3386 119.75 55.5214 118.793 53.8959H118.731V62.9582H115.054V44.4119C115.054 42.5734 115.008 40.687 114.92 38.7485H118.15L118.355 41.4781H118.426C119.646 39.4222 121.505 38.3964 123.999 38.3964C125.95 38.3964 127.576 39.2005 128.883 40.8044C130.187 42.4125 130.835 44.5206 130.835 47.1371Z" fill="white"/>
<path d="M152.101 49.2625C152.101 51.288 151.424 52.9396 150.062 54.2175C148.566 55.6083 146.489 56.3038 143.82 56.3038C141.35 56.3038 139.37 55.8083 137.87 54.8173L138.722 51.6357C140.339 52.6484 142.107 53.1526 144.037 53.1526C145.42 53.1526 146.498 52.831 147.271 52.1833C148.039 51.5314 148.424 50.6621 148.424 49.5755C148.424 48.6105 148.111 47.7891 147.475 47.1284C146.84 46.4677 145.783 45.8549 144.308 45.2855C140.293 43.7251 138.288 41.4433 138.288 38.4442C138.288 36.484 138.99 34.8758 140.398 33.624C141.802 32.3722 143.673 31.742 146.009 31.742C148.098 31.742 149.832 32.1245 151.215 32.8764L150.296 35.9928C149.005 35.2626 147.542 34.8932 145.909 34.8932C144.613 34.8932 143.607 35.2235 142.884 35.8841C142.274 36.4753 141.965 37.1968 141.965 38.0443C141.965 38.9875 142.311 39.7655 143.017 40.3784C143.627 40.9434 144.739 41.5563 146.352 42.2213C148.324 43.0471 149.773 44.012 150.705 45.1203C151.633 46.2287 152.101 47.6109 152.101 49.2625Z" fill="white"/>
<path d="M164.241 41.6171H160.193V49.9666C160.193 52.092 160.907 53.1526 162.34 53.1526C162.992 53.1526 163.54 53.0961 163.97 52.9787L164.07 55.8778C163.352 56.1646 162.395 56.3037 161.217 56.3037C159.767 56.3037 158.63 55.843 157.811 54.9259C156.997 54.0045 156.587 52.4571 156.587 50.2882V41.6171H154.172V38.7484H156.587V35.6016L160.193 34.4672V38.7484H164.241" fill="white"/>
<path d="M178.702 47.3327C178.702 45.7463 178.372 44.3902 177.712 43.2514C176.948 41.8779 175.845 41.1912 174.416 41.1912C172.941 41.1912 171.817 41.8779 171.048 43.2514C170.388 44.3902 170.066 45.7723 170.066 47.4066C170.066 48.9931 170.388 50.3492 171.048 51.4836C171.842 52.8571 172.953 53.5438 174.386 53.5438C175.786 53.5438 176.889 52.8484 177.683 51.4488C178.364 50.2927 178.702 48.9192 178.702 47.3327ZM182.513 47.211C182.513 49.8537 181.79 52.0225 180.336 53.722C178.815 55.4693 176.797 56.3386 174.282 56.3386C171.85 56.3386 169.92 55.4997 168.479 53.8263C167.041 52.1529 166.323 50.0406 166.323 47.4935C166.323 44.8248 167.062 42.6429 168.55 40.9478C170.033 39.244 172.034 38.3964 174.549 38.3964C176.977 38.3964 178.932 39.2353 180.403 40.9087C181.811 42.5429 182.513 44.6379 182.513 47.211Z" fill="white"/>
<path d="M194.453 42.1126C194.09 42.0431 193.705 42.0083 193.296 42.0083C192.005 42.0083 191.002 42.5169 190.3 43.5296C189.69 44.4293 189.385 45.5594 189.385 46.9242V55.9517H185.713L185.742 44.1685C185.742 42.1822 185.696 40.3784 185.608 38.7485H188.809L188.942 42.0431H189.039C189.427 40.913 190.041 40.0003 190.877 39.3179C191.696 38.705 192.582 38.3964 193.534 38.3964C193.873 38.3964 194.182 38.4225 194.453 38.466" fill="white"/>
<path d="M207.376 45.5463C207.401 44.4162 207.163 43.4339 206.666 42.6081C206.031 41.5476 205.049 41.0129 203.737 41.0129C202.538 41.0129 201.56 41.5345 200.813 42.5733C200.203 43.3991 199.835 44.3901 199.73 45.5463H207.376ZM210.878 46.5373C210.878 47.224 210.836 47.7977 210.748 48.2715H199.73C199.768 49.971 200.303 51.2706 201.327 52.1659C202.254 52.97 203.457 53.3656 204.932 53.3656C206.562 53.3656 208.049 53.0961 209.39 52.5528L209.967 55.2084C208.4 55.9126 206.553 56.2733 204.418 56.2733C201.857 56.2733 199.843 55.4866 198.381 53.9132C196.923 52.3485 196.188 50.2405 196.188 47.5978C196.188 45.003 196.864 42.8428 198.231 41.1216C199.655 39.2787 201.586 38.3616 204.009 38.3616C206.39 38.3616 208.199 39.2787 209.424 41.1216C210.397 42.582 210.878 44.3901 210.878 46.5373Z" fill="white"/>
</svg>
