<svg xmlns="http://www.w3.org/2000/svg" width="38" height="38">
  <g fill="none" fill-rule="nonzero">
    <circle cx="18.865" cy="18.865" r="18.865" fill="#283139"/>
    <path fill="#FFF" d="M30.42 12.37c-.808.359-1.678.601-2.59.71a4.521 4.521 0 0 0 1.984-2.495 9.027 9.027 0 0 1-2.864 1.094 4.51 4.51 0 0 0-7.684 4.113 12.8 12.8 0 0 1-9.295-4.712 4.509 4.509 0 0 0 1.395 6.02 4.477 4.477 0 0 1-2.042-.564v.057a4.512 4.512 0 0 0 3.618 4.422 4.493 4.493 0 0 1-2.037.078 4.514 4.514 0 0 0 4.213 3.131 9.047 9.047 0 0 1-5.601 1.93 9.08 9.08 0 0 1-1.075-.063 12.755 12.755 0 0 0 6.911 2.026c8.294 0 12.83-6.87 12.83-12.83 0-.195-.004-.39-.013-.583a9.144 9.144 0 0 0 2.25-2.334z"/>
  </g>
</svg>